<?xml version="1.0" encoding="utf-8" standalone="no"?>
<!DOCTYPE svg PUBLIC "-//W3C//DTD SVG 1.1//EN"
  "http://www.w3.org/Graphics/SVG/1.1/DTD/svg11.dtd">
<svg xmlns:xlink="http://www.w3.org/1999/xlink" width="504pt" height="504pt" viewBox="0 0 504 504" xmlns="http://www.w3.org/2000/svg" version="1.1">
 <metadata>
  <rdf:RDF xmlns:dc="http://purl.org/dc/elements/1.1/" xmlns:cc="http://creativecommons.org/ns#" xmlns:rdf="http://www.w3.org/1999/02/22-rdf-syntax-ns#">
   <cc:Work>
    <dc:type rdf:resource="http://purl.org/dc/dcmitype/StillImage"/>
    <dc:date>2024-07-01T06:39:26.300830</dc:date>
    <dc:format>image/svg+xml</dc:format>
    <dc:creator>
     <cc:Agent>
      <dc:title>Matplotlib v3.8.2, https://matplotlib.org/</dc:title>
     </cc:Agent>
    </dc:creator>
   </cc:Work>
  </rdf:RDF>
 </metadata>
 <defs>
  <style type="text/css">*{stroke-linejoin: round; stroke-linecap: butt}</style>
 </defs>
 <g id="figure_1">
  <g id="patch_1">
   <path d="M 0 504 
L 504 504 
L 504 0 
L 0 0 
L 0 504 
z
" style="fill: none"/>
  </g>
  <g id="axes_1">
   <g id="LineCollection_1">
    <path d="M 419.704959 94.156364 
L 257.414818 251.882112 
" clip-path="url(#p44146cbdfc)" style="fill: none; stroke: #000000; stroke-width: 5"/>
    <path d="M 257.414818 251.882112 
L 96.895041 414.883636 
" clip-path="url(#p44146cbdfc)" style="fill: none; stroke: #000000; stroke-width: 5"/>
   </g>
   <g id="PathCollection_1">
    <defs>
     <path id="C0_0_58e645cb2b" d="M 0 28.867513 
C 7.655754 28.867513 14.998979 25.82585 20.412415 20.412415 
C 25.82585 14.998979 28.867513 7.655754 28.867513 -0 
C 28.867513 -7.655754 25.82585 -14.998979 20.412415 -20.412415 
C 14.998979 -25.82585 7.655754 -28.867513 0 -28.867513 
C -7.655754 -28.867513 -14.998979 -25.82585 -20.412415 -20.412415 
C -25.82585 -14.998979 -28.867513 -7.655754 -28.867513 0 
C -28.867513 7.655754 -25.82585 14.998979 -20.412415 20.412415 
C -14.998979 25.82585 -7.655754 28.867513 0 28.867513 
z
"/>
    </defs>
    <g clip-path="url(#p44146cbdfc)">
     <use xlink:href="#C0_0_58e645cb2b" x="419.704959" y="94.156364" style="fill: #8000ff; stroke: #8000ff"/>
    </g>
    <g clip-path="url(#p44146cbdfc)">
     <use xlink:href="#C0_0_58e645cb2b" x="257.414818" y="251.882112" style="fill: #ff0000; stroke: #ff0000"/>
    </g>
    <g clip-path="url(#p44146cbdfc)">
     <use xlink:href="#C0_0_58e645cb2b" x="96.895041" y="414.883636" style="fill: #8000ff; stroke: #8000ff"/>
    </g>
   </g>
   <g id="text_1">
    <g clip-path="url(#p44146cbdfc)">
     <!-- 0 -->
     <g style="fill: #ffffff" transform="translate(405.789334 105.193864) scale(0.4 -0.4)">
      <defs>
       <path id="DejaVuSans-Bold-30" d="M 2944 2338 
Q 2944 3213 2780 3570 
Q 2616 3928 2228 3928 
Q 1841 3928 1675 3570 
Q 1509 3213 1509 2338 
Q 1509 1453 1675 1090 
Q 1841 728 2228 728 
Q 2613 728 2778 1090 
Q 2944 1453 2944 2338 
z
M 4147 2328 
Q 4147 1169 3647 539 
Q 3147 -91 2228 -91 
Q 1306 -91 806 539 
Q 306 1169 306 2328 
Q 306 3491 806 4120 
Q 1306 4750 2228 4750 
Q 3147 4750 3647 4120 
Q 4147 3491 4147 2328 
z
" transform="scale(0.015625)"/>
      </defs>
      <use xlink:href="#DejaVuSans-Bold-30"/>
     </g>
    </g>
   </g>
   <g id="text_2">
    <g clip-path="url(#p44146cbdfc)">
     <!-- 1 -->
     <g style="fill: #ffffff" transform="translate(243.499193 262.919612) scale(0.4 -0.4)">
      <defs>
       <path id="DejaVuSans-Bold-31" d="M 750 831 
L 1813 831 
L 1813 3847 
L 722 3622 
L 722 4441 
L 1806 4666 
L 2950 4666 
L 2950 831 
L 4013 831 
L 4013 0 
L 750 0 
L 750 831 
z
" transform="scale(0.015625)"/>
      </defs>
      <use xlink:href="#DejaVuSans-Bold-31"/>
     </g>
    </g>
   </g>
   <g id="text_3">
    <g clip-path="url(#p44146cbdfc)">
     <!-- 2 -->
     <g style="fill: #ffffff" transform="translate(82.979416 425.921136) scale(0.4 -0.4)">
      <defs>
       <path id="DejaVuSans-Bold-32" d="M 1844 884 
L 3897 884 
L 3897 0 
L 506 0 
L 506 884 
L 2209 2388 
Q 2438 2594 2547 2791 
Q 2656 2988 2656 3200 
Q 2656 3528 2436 3728 
Q 2216 3928 1850 3928 
Q 1569 3928 1234 3808 
Q 900 3688 519 3450 
L 519 4475 
Q 925 4609 1322 4679 
Q 1719 4750 2100 4750 
Q 2938 4750 3402 4381 
Q 3866 4013 3866 3353 
Q 3866 2972 3669 2642 
Q 3472 2313 2841 1759 
L 1844 884 
z
" transform="scale(0.015625)"/>
      </defs>
      <use xlink:href="#DejaVuSans-Bold-32"/>
     </g>
    </g>
   </g>
  </g>
 </g>
 <defs>
  <clipPath id="p44146cbdfc">
   <rect x="63" y="60.48" width="390.6" height="388.08"/>
  </clipPath>
 </defs>
</svg>
